<?xml version="1.0" encoding="UTF-8"?>
<svg width="24px" height="24px" viewBox="0 0 24 24" version="1.1" xmlns="http://www.w3.org/2000/svg" xmlns:xlink="http://www.w3.org/1999/xlink">
    <!-- Generator: Sketch 52.5 (67469) - http://www.bohemiancoding.com/sketch -->
    <title>Common / ic-toolbox-nor</title>
    <desc>Created with Sketch.</desc>
    <g id="Common-/-ic-toolbox-nor" stroke="none" stroke-width="1" fill="none" fill-rule="evenodd">
        <g id="Group" transform="translate(2.000000, 2.000000)">
            <rect id="Rectangle-13" stroke="#111111" x="0" y="3" width="20" height="6" rx="1"></rect>
            <path d="M1,9 L19,9 L19,19 C19,19.5522847 18.5522847,20 18,20 L2,20 C1.44771525,20 1,19.5522847 1,19 L1,9 Z" id="Rectangle-13-Copy" stroke="#111111"></path>
            <rect id="Rectangle" fill="#111111" x="4" y="7" width="2" height="6" rx="1"></rect>
            <rect id="Rectangle-Copy" fill="#111111" x="14" y="7" width="2" height="6" rx="1"></rect>
            <path d="M5,3.5 L5,1.5 C5,0.94771525 5.44771525,0.5 6,0.5 L14,0.5 C14.5522847,0.5 15,0.94771525 15,1.5 L15,3.5" id="Path-11" stroke="#111111"></path>
        </g>
    </g>
</svg>