<?xml version="1.0" encoding="UTF-8"?>
<svg width="24px" height="24px" viewBox="0 0 24 24" version="1.1" xmlns="http://www.w3.org/2000/svg" xmlns:xlink="http://www.w3.org/1999/xlink">
    <!-- Generator: Sketch 52.5 (67469) - http://www.bohemiancoding.com/sketch -->
    <title>Common / icon-request-sel</title>
    <desc>Created with Sketch.</desc>
    <g id="Common-/-icon-request-sel" stroke="none" stroke-width="1" fill="none" fill-rule="evenodd">
        <g id="Group" fill="#111111">
            <path d="M9.61623966,1.5 L21,1.5 C21.8284271,1.5 22.5,2.17157288 22.5,3 L22.5,21 C22.5,21.8284271 21.8284271,22.5 21,22.5 L8.23610651,22.5 C7.68678595,23.1137494 6.88849981,23.5 6,23.5 C4.34314575,23.5 3,22.1568542 3,20.5 L3,10.5785153 C1.44718025,9.54891649 0.5,7.74528731 0.5,5.8008834 C0.5,3.77361018 1.52963721,1.89936686 3.20181453,0.895875823 C3.63600452,0.635313887 4.06991701,0.5 4.5,0.5 L5,0.5 L5,5.5 C5,6.12654855 5.42013288,6.5 6,6.5 C6.57986712,6.5 7,6.12654855 7,5.5 L7,0.5 L7.5,0.5 C7.93008299,0.5 8.36399548,0.635313887 8.79818547,0.895875823 C9.09130936,1.07178253 9.36468913,1.27444592 9.61623966,1.5 Z M15,7 L19,7 C19.2761424,7 19.5,6.77614237 19.5,6.5 C19.5,6.22385763 19.2761424,6 19,6 L15,6 C14.7238576,6 14.5,6.22385763 14.5,6.5 C14.5,6.77614237 14.7238576,7 15,7 Z M13,18.5 L19,18.5 C19.2761424,18.5 19.5,18.2761424 19.5,18 C19.5,17.7238576 19.2761424,17.5 19,17.5 L13,17.5 C12.7238576,17.5 12.5,17.7238576 12.5,18 C12.5,18.2761424 12.7238576,18.5 13,18.5 Z M13,12.5 L19,12.5 C19.2761424,12.5 19.5,12.2761424 19.5,12 C19.5,11.7238576 19.2761424,11.5 19,11.5 L13,11.5 C12.7238576,11.5 12.5,11.7238576 12.5,12 C12.5,12.2761424 12.7238576,12.5 13,12.5 Z M3.71637991,1.75332697 C2.349627,2.57352964 1.5,4.12010129 1.5,5.8008834 C1.5,7.48166551 2.349627,9.02823716 3.71637991,9.84843983 L3.75728269,9.87298601 L3.76395116,9.87698005 L4.02960704,10.0357835 L4.00594063,10.3443795 C4.00198803,10.3959191 4,10.447814 4,10.5 L4,20.5 C4,21.6045695 4.8954305,22.5 6,22.5 C7.1045695,22.5 8,21.6045695 8,20.5 L8,10.5 C8,10.447814 7.99801197,10.3959191 7.99405937,10.3443795 L7.97039296,10.0357835 L8.23604884,9.87698006 L8.24271731,9.87298601 L8.28362009,9.84843983 C9.650373,9.02823716 10.5,7.48166551 10.5,5.8008834 C10.5,4.12010129 9.650373,2.57352964 8.28362009,1.75332697 C8.1860045,1.69474684 8.09151105,1.64671066 8,1.60882243 L8,5.5 C8,6.70678478 7.10763288,7.5 6,7.5 C4.89236712,7.5 4,6.70678478 4,5.5 L4,1.60882243 C3.90848895,1.64671066 3.8139955,1.69474684 3.71637991,1.75332697 Z" id="Combined-Shape"></path>
        </g>
    </g>
</svg>