<?xml version="1.0" encoding="UTF-8"?>
<svg width="24px" height="24px" viewBox="0 0 24 24" version="1.1" xmlns="http://www.w3.org/2000/svg" xmlns:xlink="http://www.w3.org/1999/xlink">
    <!-- Generator: Sketch 52.5 (67469) - http://www.bohemiancoding.com/sketch -->
    <title>Common / icon-repair-black-1px</title>
    <desc>Created with Sketch.</desc>
    <g id="Common-/-icon-repair-black-1px" stroke="none" stroke-width="1" fill="#fff" fill-rule="evenodd" stroke-linecap="round" stroke-linejoin="round">
        <path d="M12.4953819,9.08639508 L22.2939757,18.8849888 C23.2353414,19.8263546 23.2353414,21.35261 22.2939757,22.2939757 C21.35261,23.2353414 19.8263546,23.2353414 18.8849888,22.2939757 L9.08639508,12.4953819 C8.87954293,12.5782106 8.66700633,12.6502126 8.44946984,12.7107034 L8.39492008,12.7258722 C6.36849414,13.2893646 4.19563832,12.7181055 2.70837141,11.2308386 C1.2211045,9.74357166 0.649845432,7.57071584 1.2133378,5.54428991 L1.41393115,4.82291801 L5.69117914,9.10016601 L8.24791929,8.24791929 L9.10016601,5.69117914 L4.82291801,1.41393115 L5.54428991,1.2133378 C7.57071584,0.649845432 9.74357166,1.2211045 11.2308386,2.70837141 C12.7181055,4.19563832 13.2893646,6.36849414 12.7258722,8.39492008 L12.7107034,8.44946984 C12.6502126,8.66700633 12.5782106,8.87954293 12.4953819,9.08639508 Z" id="Combined-Shape-Copy-9" stroke="#fff"></path>
    </g>
</svg>