<?xml version="1.0" encoding="UTF-8"?>
<svg width="96px" height="96px" viewBox="0 0 96 96" version="1.1" xmlns="http://www.w3.org/2000/svg" xmlns:xlink="http://www.w3.org/1999/xlink">
    <!-- Generator: Sketch 52.5 (67469) - http://www.bohemiancoding.com/sketch -->
    <title>illust / B2C / Repairer</title>
    <desc>Created with Sketch.</desc>
    <g id="illust-/-B2C-/-Repairer" stroke="none" stroke-width="1" fill="none" fill-rule="evenodd">
        <g id="Group-2" transform="translate(23.000000, 15.000000)">
            <path d="M22.4233201,5.75 C16.869622,5.75 13.6168723,6.43183759 10.5620878,8.06555423 C7.75945583,9.56441822 5.56441822,11.7594558 4.06555423,14.5620878 C2.43183759,17.6168723 1.75,20.869622 1.75,26.4233201 L1.75,43.5766799 C1.75,49.130378 2.43183759,52.3831277 4.06555423,55.4379122 C5.56441822,58.2405442 7.75945583,60.4355818 10.5620878,61.9344458 C13.6168723,63.5681624 16.869622,64.25 22.4233201,64.25 L27.5766799,64.25 C33.130378,64.25 36.3831277,63.5681624 39.4379122,61.9344458 C42.2405442,60.4355818 44.4355818,58.2405442 45.9344458,55.4379122 C47.5681624,52.3831277 48.25,49.130378 48.25,43.5766799 L48.25,26.4233201 C48.25,20.869622 47.5681624,17.6168723 45.9344458,14.5620878 C44.4355818,11.7594558 42.2405442,9.56441822 39.4379122,8.06555423 C36.3831277,6.43183759 33.130378,5.75 27.5766799,5.75 L22.4233201,5.75 Z" id="Path" fill="#FFFFFF"></path>
            <path d="M49.7478543,25.8886785 C49.7492878,26.0647046 49.75,26.2428972 49.75,26.4233201 L49.75,43.5766799 C49.75,49.3607981 49.018005,52.852827 47.2571656,56.1453105 C45.6185019,59.2093452 43.2093452,61.6185019 40.1453105,63.2571656 C36.852827,65.018005 33.3607981,65.75 27.5766799,65.75 L22.4233201,65.75 C16.6392019,65.75 13.147173,65.018005 9.85468952,63.2571656 C6.79065484,61.6185019 4.38149812,59.2093452 2.74283444,56.1453105 C0.981995029,52.852827 0.25,49.3607981 0.25,43.5766799 L0.25,26.4233201 C0.25,26.2428972 0.250712225,26.0647045 0.252145684,25.8886785 L0.25,25.8736848 L0.250000464,16.6082384 C0.250000464,12.0630938 2.66957657,7.86162883 6.60079228,5.58042683 C12.718718,2.0303229 18.8548105,0.25 25,0.25 C31.14519,0.25 37.2812831,2.03032321 43.3992095,5.58042784 C47.3304244,7.86163078 49.75,12.0630955 49.75,16.6082395 L49.75,25.8736848 L49.7478543,25.8886785 Z M1.75,30.4397668 L1.75,43.5766799 C1.75,49.130378 2.43183759,52.3831277 4.06555423,55.4379122 C5.56441822,58.2405442 7.75945583,60.4355818 10.5620878,61.9344458 C13.6168723,63.5681624 16.869622,64.25 22.4233201,64.25 L27.5766799,64.25 C33.130378,64.25 36.3831277,63.5681624 39.4379122,61.9344458 C42.2405442,60.4355818 44.4355818,58.2405442 45.9344458,55.4379122 C47.5681624,52.3831277 48.25,49.130378 48.25,43.5766799 L48.25,30.4397668 C46.8345301,33.9754278 45.3589605,35.75 43.6666667,35.75 C42.842089,35.75 42.0856682,35.3375412 40.8535258,34.3841416 C40.5657188,34.161444 39.4739202,33.2869594 39.2884863,33.1408785 C38.6075885,32.6044815 38.023206,32.1688954 37.4104403,31.7505347 C33.8738721,29.3359723 30.0342542,28.0122612 25,28.0122612 C19.9657458,28.0122612 16.1261279,29.3359723 12.5895597,31.7505347 C11.976794,32.1688954 11.3924115,32.6044815 10.7115137,33.1408785 C10.5260798,33.2869594 9.43428122,34.161444 9.14647424,34.3841416 C7.91433184,35.3375412 7.15791097,35.75 6.33333333,35.75 C4.64103952,35.75 3.16546987,33.9754278 1.75,30.4397668 Z M20,55 L30,55 C30,57.7614237 27.7614237,60 25,60 C22.2385763,60 20,57.7614237 20,55 Z M36.5,36 C37.8807119,36 39,37.1192881 39,38.5 L39,43.5 C39,44.8807119 37.8807119,46 36.5,46 C35.1192881,46 34,44.8807119 34,43.5 L34,38.5 C34,37.1192881 35.1192881,36 36.5,36 Z M13.5,36 C14.8807119,36 16,37.1192881 16,38.5 L16,43.5 C16,44.8807119 14.8807119,46 13.5,46 C12.1192881,46 11,44.8807119 11,43.5 L11,38.5 C11,37.1192881 12.1192881,36 13.5,36 Z M15.75,14.5714286 C15.75,14.7307625 15.7729727,14.8892642 15.8182091,15.0420417 C16.0781215,15.9198485 17.0004242,16.4207494 17.8782305,16.1608338 C20.24958,15.4586938 22.6241776,15.1071429 25,15.1071429 C27.3758266,15.1071429 29.7504247,15.458695 32.1217682,16.1608382 C32.2745457,16.2060746 32.4330474,16.2290473 32.5923813,16.2290473 C33.5078588,16.2290473 34.25,15.4869061 34.25,14.5714286 C34.25,12.7222596 33.0150088,11.1007976 31.2323309,10.6094192 C29.1527553,10.0362303 27.0758714,9.75 25,9.75 C22.9241069,9.75 20.8472261,10.0362363 18.7676847,10.6094423 C16.9849927,11.1008014 15.75,12.7222568 15.75,14.5714286 Z" id="Shape" fill="#111111"></path>
            <path d="M48.25,16.6082395 L48.25,25.7660492 C46.5842783,31.4328714 44.9304079,34.25 43.6666667,34.25 C43.0493589,34.25 37.9324643,30.2906806 38.2562263,30.5117264 C34.4827945,27.9354473 30.3546347,26.5122612 25,26.5122612 C19.6453653,26.5122612 15.5172055,27.9354473 11.7437737,30.5117264 C12.0675357,30.2906806 6.95064111,34.25 6.33333333,34.25 C5.06959208,34.25 3.41572166,31.4328714 1.75000001,25.7660492 L1.75000046,16.6082385 C1.75000046,12.5978167 3.88492054,8.89064177 7.35364027,6.87781648 C13.2509037,3.4557582 19.1300003,1.75 25,1.75 C30.8700002,1.75 36.7490973,3.4557585 42.6463613,6.87781738 C46.1150803,8.89064348 48.25,12.5978183 48.25,16.6082395 Z M25,8.25 C22.788151,8.25 20.5772897,8.55470153 18.3690976,9.16336885 C15.9357515,9.83406618 14.25,12.0473351 14.25,14.5714286 C14.25,14.8749458 14.2937609,15.1768776 14.3799323,15.4679054 C14.8750432,17.1400518 16.6319528,18.0942263 18.3040967,17.5991099 C20.5386366,16.9374782 22.7699307,16.6071429 25,16.6071429 C27.2300728,16.6071429 29.4613664,16.9374792 31.6959031,17.5991146 C31.9869323,17.6852863 32.2888641,17.7290473 32.5923813,17.7290473 C34.336286,17.7290473 35.75,16.3153332 35.75,14.5714286 C35.75,12.0473424 34.0642567,9.83407266 31.6309181,9.16334584 C29.4226812,8.55469432 27.2118229,8.25 25,8.25 Z" id="Color" fill="#FF5550"></path>
        </g>
        <g id="Group-3" transform="translate(65.000000, 31.000000)">
            <path d="M15.6166667,18.9313546 L15.6166667,44.7333333 C15.6166667,47.5039618 13.3706285,49.75 10.6,49.75 C7.82937151,49.75 5.58333333,47.5039618 5.58333333,44.7333333 L5.58333333,18.9313546 C5.53027208,18.901919 5.47743661,18.8720055 5.42483226,18.8416162 L5.34629891,18.7962479 C2.19574887,16.9761919 0.25,13.5666523 0.25,9.87339048 C0.25,5.10902269 2.28190183,1.40644224 6.81809828,0.272393125 C7.29145833,0.154053114 7.75,0.512071635 7.75,1 L7.75,10.1986122 L10.6,12.0986122 L13.45,10.1986122 L13.45,1 C13.45,0.512071635 13.9085417,0.154053114 14.3819017,0.272393125 C18.9180982,1.40644224 20.95,5.10902269 20.95,9.87339048 C20.95,13.5666523 19.0042511,16.9761919 15.8537011,18.7962479 L15.7751677,18.8416162 C15.7225634,18.8720055 15.6697279,18.901919 15.6166667,18.9313546 Z" id="Path" fill="#111111" fill-rule="nonzero"></path>
            <path d="M1.75,9.87339048 C1.75,13.0336637 3.41243842,15.9467578 6.0966344,17.4974036 L6.17516774,17.5427719 C6.33678036,17.6361346 6.50089181,17.7242308 6.66729794,17.8069863 C6.92218011,17.933742 7.08333333,18.1938666 7.08333333,18.4785276 L7.08333333,44.7333333 C7.08333333,46.6755347 8.65779863,48.25 10.6,48.25 C12.5422014,48.25 14.1166667,46.6755347 14.1166667,44.7333333 L14.1166667,18.4785276 C14.1166667,18.1938666 14.2778199,17.933742 14.5327021,17.8069863 C14.6991082,17.7242308 14.8632196,17.6361346 15.0248323,17.5427719 L15.1033656,17.4974036 C17.7875616,15.9467578 19.45,13.0336637 19.45,9.87339048 C19.45,6.0848669 18.0507313,3.20582733 14.95,2.01963364 L14.95,10.6 C14.95,10.8507649 14.8246741,11.0849384 14.6160251,11.2240377 L11.0160251,13.6240377 C10.7641006,13.7919874 10.4358994,13.7919874 10.1839749,13.6240377 L6.58397485,11.2240377 C6.37532585,11.0849384 6.25,10.8507649 6.25,10.6 L6.25,2.01963364 C3.14926872,3.20582733 1.75,6.0848669 1.75,9.87339048 Z" id="Path" fill="#FFFFFF" fill-rule="nonzero"></path>
            <path d="M10.6,45 C11.4836556,45 12.2,44.2836556 12.2,43.4 C12.2,42.5163444 11.4836556,41.8 10.6,41.8 C9.7163444,41.8 9,42.5163444 9,43.4 C9,44.2836556 9.7163444,45 10.6,45 Z" id="Path" fill="#111111"></path>
        </g>
    </g>
</svg>